<svg width="20" height="13" viewBox="0 0 20 13" fill="none" xmlns="http://www.w3.org/2000/svg">
<path d="M8.24112 1.6691H10.8428C12.0467 1.67003 13.0921 2.37866 13.3682 3.38105C13.3913 3.46462 13.4785 3.52368 13.5789 3.52388H17.5657C17.6232 3.52406 17.6784 3.50465 17.7192 3.46994C17.7599 3.43522 17.7828 3.38807 17.7828 3.33888V1.48342C17.7828 1.08987 17.6 0.712457 17.2746 0.434243C16.9492 0.156028 16.5079 -0.000180286 16.0478 1.56153e-07H3.03614C2.57606 -0.000180286 2.13476 0.156028 1.80936 0.434243C1.48397 0.712457 1.30115 1.08987 1.30115 1.48342V3.33888C1.30115 3.38807 1.32404 3.43522 1.36477 3.46994C1.40551 3.50465 1.46072 3.52406 1.51822 3.52388H5.50505C5.60565 3.52419 5.69311 3.4649 5.71576 3.38105C5.99186 2.37866 7.03718 1.67003 8.24112 1.6691Z" fill="black" fill-opacity="0.5"/>
<path d="M0.867497 4.63745C0.637358 4.63727 0.416584 4.71539 0.253851 4.85459C0.091118 4.99379 -0.000210868 5.18264 3.65606e-07 5.3795V9.27475C-3.4141e-07 9.62742 0.290182 9.93137 0.694157 10.0018C0.794956 10.0196 0.867345 10.0954 0.867497 10.1834V11.6859C0.867497 12.0957 1.25589 12.4279 1.73499 12.4279C2.2141 12.4279 2.60249 12.0957 2.60249 11.6859V10.2025C2.60228 10.1533 2.62497 10.1061 2.66555 10.0712C2.70614 10.0364 2.76127 10.0168 2.81877 10.0168H16.2646C16.3221 10.0168 16.3772 10.0364 16.4178 10.0712C16.4584 10.1061 16.4811 10.1533 16.4808 10.2025V11.6859C16.4808 12.0957 16.8692 12.4279 17.3483 12.4279C17.8274 12.4279 18.2158 12.0957 18.2158 11.6859V10.1834C18.216 10.0954 18.2884 10.0196 18.3892 10.0018C18.7931 9.93137 19.0833 9.62742 19.0833 9.27475V5.3795C19.0835 5.18264 18.9922 4.99379 18.8295 4.85459C18.6667 4.71539 18.446 4.63727 18.2158 4.63745H0.867497Z" fill="black" fill-opacity="0.5"/>
</svg>
