<svg width="24" height="24" viewBox="0 0 24 24" fill="none" xmlns="http://www.w3.org/2000/svg">
<path d="M7.78999 7.99993H16.21C16.5424 7.99945 16.8682 8.09311 17.1495 8.27009C17.4309 8.44706 17.6564 8.7001 17.8 8.99993C17.968 9.35567 18.0327 9.75146 17.9868 10.1422C17.9408 10.5329 17.786 10.9029 17.54 11.2099L13.33 16.3099C13.1648 16.5006 12.9605 16.6534 12.731 16.7582C12.5016 16.863 12.2523 16.9172 12 16.9172C11.7477 16.9172 11.4984 16.863 11.2689 16.7582C11.0395 16.6534 10.8352 16.5006 10.67 16.3099L6.45999 11.2099C6.21398 10.9029 6.05918 10.5329 6.01321 10.1422C5.96724 9.75146 6.03196 9.35567 6.19999 8.99993C6.34353 8.7001 6.56905 8.44706 6.85044 8.27009C7.13182 8.09311 7.45758 7.99945 7.78999 7.99993Z" fill="black"/>
</svg>
