<svg width="24" height="24" viewBox="0 0 24 24" fill="none" xmlns="http://www.w3.org/2000/svg">
<path d="M7.79005 7.99993H16.2101C16.5425 7.99945 16.8682 8.09311 17.1496 8.27009C17.431 8.44706 17.6565 8.7001 17.8001 8.99993C17.9681 9.35567 18.0328 9.75146 17.9868 10.1422C17.9409 10.5329 17.7861 10.9029 17.5401 11.2099L13.3301 16.3099C13.1648 16.5006 12.9606 16.6534 12.7311 16.7582C12.5016 16.863 12.2523 16.9172 12.0001 16.9172C11.7478 16.9172 11.4985 16.863 11.269 16.7582C11.0395 16.6534 10.8353 16.5006 10.6701 16.3099L6.46005 11.2099C6.21404 10.9029 6.05924 10.5329 6.01327 10.1422C5.9673 9.75146 6.03202 9.35567 6.20005 8.99993C6.34359 8.7001 6.56911 8.44706 6.8505 8.27009C7.13189 8.09311 7.45764 7.99945 7.79005 7.99993Z" fill="black"/>
</svg>
