<svg width="14" height="14" viewBox="0 0 14 14" fill="none" xmlns="http://www.w3.org/2000/svg">
<path d="M4.54422 4.66665H9.45588C9.64979 4.66637 9.83981 4.721 10.004 4.82424C10.1681 4.92747 10.2997 5.07508 10.3834 5.24998C10.4814 5.4575 10.5192 5.68837 10.4923 5.9163C10.4655 6.14423 10.3752 6.36004 10.2317 6.53915L7.77588 9.51415C7.67951 9.62535 7.56035 9.71453 7.4265 9.77565C7.29264 9.83678 7.1472 9.86841 7.00005 9.86841C6.8529 9.86841 6.70747 9.83678 6.57361 9.77565C6.43975 9.71453 6.32059 9.62535 6.22422 9.51415L3.76838 6.53915C3.62488 6.36004 3.53458 6.14423 3.50776 5.9163C3.48095 5.68837 3.5187 5.4575 3.61672 5.24998C3.70045 5.07508 3.832 4.92747 3.99614 4.82424C4.16029 4.721 4.35031 4.66637 4.54422 4.66665Z" fill="black" fill-opacity="0.5"/>
</svg>
