<svg width="22" height="18" viewBox="0 0 22 18" fill="none" xmlns="http://www.w3.org/2000/svg">
<path d="M19.3792 0H2.15327C0.968989 0 0.0107967 0.985645 0.0107967 2.19032L3.05176e-05 15.3323C3.05176e-05 16.5369 0.968989 17.5226 2.15327 17.5226H19.3792C20.5635 17.5226 21.5324 16.5369 21.5324 15.3323V2.19032C21.5324 0.985645 20.5635 0 19.3792 0ZM18.9485 4.65444L11.3368 9.49505C10.9923 9.71408 10.5401 9.71408 10.1956 9.49505L2.58392 4.65444C2.47596 4.59279 2.38143 4.5095 2.30603 4.40962C2.23064 4.30973 2.17595 4.19532 2.14528 4.07331C2.11461 3.9513 2.10859 3.82423 2.1276 3.69979C2.14661 3.57535 2.19024 3.45613 2.25585 3.34933C2.32147 3.24254 2.4077 3.1504 2.50934 3.07849C2.61097 3.00658 2.72589 2.9564 2.84715 2.93098C2.9684 2.90556 3.09347 2.90543 3.21477 2.93059C3.33607 2.95576 3.4511 3.00571 3.55288 3.0774L10.7662 7.66613L17.9796 3.0774C18.0814 3.00571 18.1964 2.95576 18.3177 2.93059C18.439 2.90543 18.5641 2.90556 18.6853 2.93098C18.8066 2.9564 18.9215 3.00658 19.0231 3.07849C19.1248 3.1504 19.211 3.24254 19.2766 3.34933C19.3422 3.45613 19.3859 3.57535 19.4049 3.69979C19.4239 3.82423 19.4179 3.9513 19.3872 4.07331C19.3565 4.19532 19.3018 4.30973 19.2264 4.40962C19.151 4.5095 19.0565 4.59279 18.9485 4.65444Z" fill="#007BFF"/>
</svg>
