<svg width="27" height="27" viewBox="0 0 27 27" fill="none" xmlns="http://www.w3.org/2000/svg">
<path d="M19.5455 17.4604C18.7202 17.4604 17.9818 17.7862 17.4172 18.2965L9.67507 13.7902C9.72936 13.5405 9.7728 13.2907 9.7728 13.0301C9.7728 12.7695 9.72936 12.5198 9.67507 12.27L17.3303 7.8072C17.9167 8.35012 18.6876 8.68674 19.5455 8.68674C21.348 8.68674 22.803 7.2317 22.803 5.42918C22.803 3.62667 21.348 2.17163 19.5455 2.17163C17.7429 2.17163 16.2879 3.62667 16.2879 5.42918C16.2879 5.68979 16.3313 5.93953 16.3856 6.18928L8.73038 10.6521C8.14402 10.1092 7.37307 9.77259 6.51524 9.77259C4.71273 9.77259 3.25769 11.2276 3.25769 13.0301C3.25769 14.8327 4.71273 16.2877 6.51524 16.2877C7.37307 16.2877 8.14402 15.9511 8.73038 15.4082L16.4616 19.9253C16.4073 20.1533 16.3748 20.3922 16.3748 20.6311C16.3748 22.3793 17.7972 23.8018 19.5455 23.8018C21.2937 23.8018 22.7161 22.3793 22.7161 20.6311C22.7161 18.8829 21.2937 17.4604 19.5455 17.4604Z" fill="#007BFF"/>
</svg>
