<svg width="52" height="48" viewBox="0 0 52 48" fill="none" xmlns="http://www.w3.org/2000/svg">
<path d="M10 1H41.5527C46.5233 1 50.5527 5.02944 50.5527 10V37.3857C50.5526 42.3562 46.5232 46.3857 41.5527 46.3857H10C5.02953 46.3857 1.00015 42.3562 1 37.3857V10C1 5.18468 4.78166 1.25264 9.53711 1.01172L10 1Z" fill="white" stroke="#205ED7" stroke-width="2"/>
<path d="M35.9235 15.0771H17.5935C16.3333 15.0771 15.3137 16.0464 15.3137 17.231L15.3022 30.1543C15.3022 31.339 16.3333 32.3082 17.5935 32.3082H35.9235C37.1836 32.3082 38.2147 31.339 38.2147 30.1543V17.231C38.2147 16.0464 37.1836 15.0771 35.9235 15.0771ZM35.4652 19.6542L27.3657 24.4142C26.9991 24.6296 26.5179 24.6296 26.1513 24.4142L18.0517 19.6542C17.9369 19.5935 17.8363 19.5116 17.756 19.4134C17.6758 19.3152 17.6176 19.2027 17.585 19.0827C17.5524 18.9627 17.546 18.8378 17.5662 18.7154C17.5864 18.593 17.6328 18.4758 17.7026 18.3708C17.7725 18.2657 17.8642 18.1751 17.9724 18.1044C18.0805 18.0337 18.2028 17.9844 18.3318 17.9594C18.4609 17.9344 18.5939 17.9342 18.723 17.959C18.8521 17.9837 18.9745 18.0329 19.0828 18.1034L26.7585 22.6157L34.4341 18.1034C34.5424 18.0329 34.6648 17.9837 34.7939 17.959C34.923 17.9342 35.0561 17.9344 35.1851 17.9594C35.3141 17.9844 35.4364 18.0337 35.5446 18.1044C35.6527 18.1751 35.7445 18.2657 35.8143 18.3708C35.8841 18.4758 35.9305 18.593 35.9508 18.7154C35.971 18.8378 35.9646 18.9627 35.932 19.0827C35.8993 19.2027 35.8411 19.3152 35.7609 19.4134C35.6807 19.5116 35.5801 19.5935 35.4652 19.6542Z" fill="#007BFF"/>
</svg>
