<svg width="27" height="27" viewBox="0 0 27 27" fill="none" xmlns="http://www.w3.org/2000/svg">
<path d="M20.6313 5.33152C19.6357 4.32613 18.4499 3.52897 17.143 2.98647C15.8362 2.44398 14.4345 2.167 13.0195 2.17169C7.09075 2.17169 2.25871 7.00373 2.25871 12.9325C2.25871 14.8327 2.7582 16.6787 3.69204 18.3074L2.17184 23.8887L7.87256 22.3902C9.44705 23.2481 11.217 23.7041 13.0195 23.7041C18.9482 23.7041 23.7803 18.8721 23.7803 12.9433C23.7803 10.0658 22.6619 7.36206 20.6313 5.33152ZM13.0195 21.8799C11.4124 21.8799 9.83795 21.4455 8.45892 20.6312L8.13317 20.4357L4.74531 21.3261L5.64657 18.0251L5.4294 17.6885C4.53634 16.2628 4.06223 14.6148 4.06123 12.9325C4.06123 8.00271 8.07887 3.98506 13.0086 3.98506C15.3975 3.98506 17.6452 4.91889 19.3283 6.61282C20.1618 7.44226 20.8223 8.42895 21.2716 9.51566C21.7208 10.6024 21.9498 11.7674 21.9452 12.9433C21.9669 17.8731 17.9493 21.8799 13.0195 21.8799ZM17.9275 15.191C17.6561 15.0607 16.3313 14.4092 16.0925 14.3115C15.8427 14.2246 15.669 14.1812 15.4844 14.4418C15.2998 14.7133 14.7894 15.3213 14.6374 15.4951C14.4854 15.6797 14.3225 15.7014 14.0511 15.5602C13.7796 15.4299 12.9109 15.1368 11.8902 14.2246C11.0867 13.508 10.5546 12.6284 10.3917 12.357C10.2397 12.0855 10.37 11.9444 10.5112 11.8032C10.6306 11.6837 10.7826 11.4883 10.9129 11.3363C11.0432 11.1843 11.0975 11.0648 11.1844 10.8911C11.2713 10.7065 11.2278 10.5545 11.1627 10.4242C11.0975 10.2939 10.5546 8.96912 10.3374 8.42619C10.1203 7.90498 9.89225 7.97013 9.72937 7.95928H9.20816C9.02357 7.95928 8.74124 8.02443 8.4915 8.29589C8.25261 8.56735 7.55767 9.21886 7.55767 10.5436C7.55767 11.8683 8.52407 13.1496 8.65438 13.3234C8.78468 13.508 10.5546 16.2226 13.2475 17.3845C13.8882 17.6668 14.3877 17.8297 14.7786 17.9491C15.4192 18.1554 16.0056 18.1228 16.4725 18.0577C16.9937 17.9817 18.0687 17.4062 18.2859 16.7764C18.5139 16.1466 18.5139 15.6145 18.4379 15.4951C18.3619 15.3756 18.199 15.3213 17.9275 15.191Z" fill="#28A745"/>
</svg>
