<svg width="27" height="27" viewBox="0 0 27 27" fill="none" xmlns="http://www.w3.org/2000/svg">
<path d="M19.9935 17.8608C19.1493 17.8608 18.394 18.194 17.8164 18.7161L9.89679 14.1065C9.95232 13.851 9.99675 13.5955 9.99675 13.329C9.99675 13.0624 9.95232 12.8069 9.89679 12.5514L17.7276 7.98624C18.3274 8.54161 19.116 8.88595 19.9935 8.88595C21.8374 8.88595 23.3258 7.39754 23.3258 5.55369C23.3258 3.70984 21.8374 2.22144 19.9935 2.22144C18.1497 2.22144 16.6613 3.70984 16.6613 5.55369C16.6613 5.82027 16.7057 6.07574 16.7612 6.33122L8.93043 10.8964C8.33063 10.341 7.54199 9.9967 6.6645 9.9967C4.82065 9.9967 3.33224 11.4851 3.33224 13.329C3.33224 15.1728 4.82065 16.6612 6.6645 16.6612C7.54199 16.6612 8.33063 16.3169 8.93043 15.7615L16.839 20.3822C16.7834 20.6155 16.7501 20.8598 16.7501 21.1042C16.7501 22.8925 18.2052 24.3476 19.9935 24.3476C21.7818 24.3476 23.2369 22.8925 23.2369 21.1042C23.2369 19.3159 21.7818 17.8608 19.9935 17.8608Z" fill="#007BFF"/>
</svg>
