<svg width="27" height="27" viewBox="0 0 27 27" fill="none" xmlns="http://www.w3.org/2000/svg">
<path d="M21.1043 5.45378C20.0858 4.42534 18.8728 3.6099 17.536 3.05496C16.1992 2.50003 14.7653 2.2167 13.3179 2.2215C7.2532 2.2215 2.31036 7.16434 2.31036 13.229C2.31036 15.1729 2.8213 17.0611 3.77655 18.7273L2.2215 24.4365L8.05294 22.9037C9.66353 23.7812 11.4741 24.2477 13.3179 24.2477C19.3826 24.2477 24.3255 19.3049 24.3255 13.2402C24.3255 10.2967 23.1814 7.53089 21.1043 5.45378ZM13.3179 22.3816C11.674 22.3816 10.0634 21.9373 8.65275 21.1043L8.31952 20.9043L4.85398 21.8152L5.7759 18.4385L5.55375 18.0941C4.64021 16.6358 4.15523 14.9499 4.1542 13.229C4.1542 8.18623 8.26398 4.07645 13.3068 4.07645C15.7505 4.07645 18.0497 5.0317 19.7714 6.76447C20.624 7.61293 21.2997 8.62225 21.7592 9.73387C22.2187 10.8455 22.4529 12.0373 22.4483 13.2402C22.4705 18.283 18.3607 22.3816 13.3179 22.3816ZM18.3385 15.5394C18.0608 15.4061 16.7057 14.7397 16.4613 14.6397C16.2059 14.5508 16.0281 14.5064 15.8393 14.773C15.6505 15.0507 15.1284 15.6727 14.9729 15.8504C14.8174 16.0392 14.6508 16.0615 14.3731 15.9171C14.0954 15.7838 13.2068 15.4839 12.1627 14.5508C11.3408 13.8177 10.7965 12.918 10.6299 12.6403C10.4744 12.3627 10.6077 12.2183 10.7521 12.0739C10.8743 11.9517 11.0298 11.7517 11.163 11.5962C11.2963 11.4407 11.3519 11.3186 11.4407 11.1408C11.5296 10.952 11.4852 10.7965 11.4185 10.6632C11.3519 10.5299 10.7965 9.1748 10.5743 8.61943C10.3522 8.08626 10.1189 8.15291 9.95233 8.1418H9.41917C9.23034 8.1418 8.94154 8.20845 8.68607 8.48614C8.44171 8.76382 7.73082 9.43027 7.73082 10.7854C7.73082 12.1405 8.71939 13.4512 8.85268 13.6289C8.98597 13.8177 10.7965 16.5946 13.5512 17.7831C14.2065 18.0719 14.7175 18.2385 15.1173 18.3607C15.7727 18.5718 16.3725 18.5384 16.8501 18.4718C17.3833 18.394 18.4829 17.8053 18.705 17.1611C18.9383 16.5169 18.9383 15.9726 18.8606 15.8504C18.7828 15.7282 18.6162 15.6727 18.3385 15.5394Z" fill="#28A745"/>
</svg>
