<svg width="27" height="27" viewBox="0 0 27 27" fill="none" xmlns="http://www.w3.org/2000/svg">
<path d="M21.1043 5.45378C20.0858 4.42534 18.8729 3.6099 17.5361 3.05496C16.1993 2.50003 14.7654 2.2167 13.318 2.2215C7.25326 2.2215 2.31042 7.16434 2.31042 13.229C2.31042 15.1729 2.82136 17.0611 3.77661 18.7273L2.22156 24.4365L8.053 22.9037C9.66359 23.7812 11.4741 24.2477 13.318 24.2477C19.3827 24.2477 24.3255 19.3049 24.3255 13.2402C24.3255 10.2967 23.1814 7.53089 21.1043 5.45378ZM13.318 22.3816C11.6741 22.3816 10.0635 21.9373 8.65281 21.1043L8.31958 20.9043L4.85404 21.8152L5.77596 18.4385L5.55381 18.0941C4.64027 16.6358 4.15529 14.9499 4.15427 13.229C4.15427 8.18623 8.26405 4.07645 13.3069 4.07645C15.7505 4.07645 18.0498 5.0317 19.7714 6.76447C20.6241 7.61293 21.2997 8.62225 21.7593 9.73387C22.2188 10.8455 22.453 12.0373 22.4483 13.2402C22.4706 18.283 18.3608 22.3816 13.318 22.3816ZM18.3386 15.5394C18.0609 15.4061 16.7058 14.7397 16.4614 14.6397C16.2059 14.5508 16.0282 14.5064 15.8394 14.773C15.6505 15.0507 15.1285 15.6727 14.973 15.8504C14.8175 16.0392 14.6509 16.0615 14.3732 15.9171C14.0955 15.7838 13.2069 15.4839 12.1628 14.5508C11.3408 13.8177 10.7966 12.918 10.6299 12.6403C10.4744 12.3627 10.6077 12.2183 10.7521 12.0739C10.8743 11.9517 11.0298 11.7517 11.1631 11.5962C11.2964 11.4407 11.3519 11.3186 11.4408 11.1408C11.5297 10.952 11.4852 10.7965 11.4186 10.6632C11.3519 10.5299 10.7966 9.1748 10.5744 8.61943C10.3523 8.08626 10.119 8.15291 9.95239 8.1418H9.41923C9.2304 8.1418 8.9416 8.20845 8.68613 8.48614C8.44177 8.76382 7.73089 9.43027 7.73089 10.7854C7.73089 12.1405 8.71945 13.4512 8.85275 13.6289C8.98604 13.8177 10.7966 16.5946 13.5512 17.7831C14.2066 18.0719 14.7175 18.2385 15.1174 18.3607C15.7727 18.5718 16.3725 18.5384 16.8502 18.4718C17.3833 18.394 18.483 17.8053 18.7051 17.1611C18.9384 16.5169 18.9384 15.9726 18.8606 15.8504C18.7829 15.7282 18.6163 15.6727 18.3386 15.5394Z" fill="#28A745"/>
</svg>
