<svg width="35" height="35" viewBox="0 0 35 35" fill="none" xmlns="http://www.w3.org/2000/svg">
<path d="M30.6251 30.6251L24.2915 24.2915M24.2915 24.2915C25.3749 23.2081 26.2343 21.922 26.8206 20.5065C27.4069 19.091 27.7087 17.5739 27.7087 16.0417C27.7087 14.5096 27.4069 12.9925 26.8206 11.577C26.2343 10.1615 25.3749 8.87531 24.2915 7.79193C23.2081 6.70855 21.922 5.84917 20.5065 5.26285C19.091 4.67653 17.5739 4.37476 16.0417 4.37476C14.5096 4.37476 12.9925 4.67653 11.577 5.26285C10.1615 5.84917 8.87531 6.70855 7.79193 7.79193C5.60395 9.97991 4.37476 12.9475 4.37476 16.0417C4.37476 19.136 5.60395 22.1035 7.79193 24.2915C9.97991 26.4795 12.9475 27.7087 16.0417 27.7087C19.136 27.7087 22.1035 26.4795 24.2915 24.2915Z" stroke="white" stroke-width="2.5" stroke-linecap="round" stroke-linejoin="round"/>
</svg>
