<svg width="31" height="31" viewBox="0 0 31 31" fill="none" xmlns="http://www.w3.org/2000/svg">
<path d="M15.2465 23.3736L15.1205 23.4997L14.9819 23.3736C8.99669 17.9429 5.04016 14.3518 5.04016 10.7102C5.04016 8.19017 6.93022 6.30011 9.4503 6.30011C11.3908 6.30011 13.2808 7.56015 13.9486 9.2738H16.2923C16.9601 7.56015 18.8502 6.30011 20.7907 6.30011C23.3107 6.30011 25.2008 8.19017 25.2008 10.7102C25.2008 14.3518 21.2443 17.9429 15.2465 23.3736ZM20.7907 3.78003C18.5982 3.78003 16.4939 4.80066 15.1205 6.40091C13.747 4.80066 11.6428 3.78003 9.4503 3.78003C5.56938 3.78003 2.52008 6.81673 2.52008 10.7102C2.52008 15.4606 6.80422 19.3541 13.2934 25.2385L15.1205 26.9018L16.9475 25.2385C23.4367 19.3541 27.7209 15.4606 27.7209 10.7102C27.7209 6.81673 24.6716 3.78003 20.7907 3.78003Z" fill="#FF0000"/>
</svg>
