<svg width="31" height="31" viewBox="0 0 31 31" fill="none" xmlns="http://www.w3.org/2000/svg">
<path d="M15.2464 23.3736L15.1204 23.4997L14.9818 23.3736C8.99663 17.9429 5.0401 14.3518 5.0401 10.7102C5.0401 8.19017 6.93016 6.30011 9.45024 6.30011C11.3907 6.30011 13.2808 7.56015 13.9486 9.2738H16.2923C16.9601 7.56015 18.8501 6.30011 20.7906 6.30011C23.3107 6.30011 25.2007 8.19017 25.2007 10.7102C25.2007 14.3518 21.2442 17.9429 15.2464 23.3736ZM20.7906 3.78003C18.5981 3.78003 16.4939 4.80066 15.1204 6.40091C13.747 4.80066 11.6427 3.78003 9.45024 3.78003C5.56932 3.78003 2.52002 6.81673 2.52002 10.7102C2.52002 15.4606 6.80416 19.3541 13.2934 25.2385L15.1204 26.9018L16.9475 25.2385C23.4367 19.3541 27.7208 15.4606 27.7208 10.7102C27.7208 6.81673 24.6715 3.78003 20.7906 3.78003Z" fill="#FF0000"/>
</svg>
