<svg width="63" height="63" viewBox="0 0 63 63" fill="none" xmlns="http://www.w3.org/2000/svg">
<path fill-rule="evenodd" clip-rule="evenodd" d="M24.4995 1.86267C37.0015 1.86267 47.1363 11.9975 47.1363 24.4994C47.1363 37.0014 37.0015 47.1362 24.4995 47.1362C11.9976 47.1362 1.86276 37.0014 1.86276 24.4994C1.86276 11.9975 11.9976 1.86267 24.4995 1.86267ZM35.4764 17.1819C35.9614 16.6968 36.2339 16.0389 36.2339 15.3529C36.2339 14.6669 35.9614 14.009 35.4764 13.5238C29.4149 7.46107 19.5867 7.46107 13.5252 13.5238C13.054 14.0118 12.7932 14.6653 12.7991 15.3436C12.805 16.0219 13.0771 16.6708 13.5567 17.1504C14.0364 17.6301 14.6853 17.9022 15.3636 17.9081C16.0419 17.9139 16.6954 17.6532 17.1833 17.1819C18.1442 16.221 19.285 15.4587 20.5406 14.9386C21.7961 14.4185 23.1418 14.1508 24.5008 14.1508C25.8598 14.1508 27.2055 14.4185 28.461 14.9386C29.7166 15.4587 30.8574 16.221 31.8183 17.1819C32.0585 17.4223 32.3438 17.6129 32.6577 17.743C32.9717 17.8731 33.3082 17.94 33.648 17.94C33.9878 17.94 34.3243 17.8731 34.6383 17.743C34.9522 17.6129 35.2362 17.4223 35.4764 17.1819ZM36.8061 47.9938C41.5827 45.4831 45.4845 41.5814 47.9952 36.8048C50.158 39.8575 52.2444 42.8391 54.0398 45.5257C56.0047 48.4672 57.6747 51.1371 58.7366 53.2222C59.2618 54.2532 59.69 55.2401 59.9073 56.0991C60.0344 56.5656 60.0881 57.0492 60.0664 57.5323C60.0328 58.0471 59.8646 58.7378 59.3019 59.3005C58.7392 59.8632 58.0472 60.0314 57.5337 60.065C57.0505 60.0867 56.567 60.033 56.1004 59.9059C55.2415 59.6873 54.2546 59.2591 53.2249 58.7353C51.1384 57.6746 48.4686 56.0033 45.5284 54.0372C42.8405 52.243 39.8602 50.1566 36.8061 47.9951" fill="#FE8E0A"/>
</svg>
