<svg width="27" height="27" viewBox="0 0 27 27" fill="none" xmlns="http://www.w3.org/2000/svg">
<path d="M11.556 4.16813C11.6735 4.35605 11.7527 4.56527 11.7893 4.78383C11.8259 5.00239 11.8191 5.22602 11.7693 5.44196C11.7195 5.65789 11.6276 5.86189 11.4989 6.04231C11.3702 6.22274 11.2073 6.37605 11.0194 6.4935C8.96552 7.77279 7.33389 9.62862 6.32813 11.8294C7.34381 11.7444 8.36148 11.9681 9.24799 12.471C10.1345 12.9739 10.8486 13.7327 11.2968 14.6481C11.745 15.5635 11.9064 16.5929 11.76 17.6015C11.6136 18.6102 11.1661 19.5511 10.4761 20.3013C9.78618 21.0515 8.88584 21.576 7.89293 21.8061C6.90001 22.0362 5.86076 21.9612 4.91115 21.591C3.96153 21.2208 3.14577 20.5726 2.57061 19.7311C1.99544 18.8897 1.68765 17.8942 1.6875 16.875V16.8294C1.68934 16.6988 1.69496 16.5683 1.70437 16.4379C1.71956 16.1848 1.74994 15.8304 1.809 15.3951C1.92713 14.5294 2.15831 13.3363 2.62575 11.9964C3.55725 9.31332 5.44388 5.99738 9.23063 3.6315C9.41855 3.51405 9.62776 3.43477 9.84633 3.39817C10.0649 3.36157 10.2885 3.36838 10.5045 3.41821C10.7204 3.46805 10.9244 3.55992 11.1048 3.68859C11.2852 3.81726 11.4385 3.98021 11.556 4.16813ZM23.3685 4.16813C23.486 4.35605 23.5652 4.56527 23.6018 4.78383C23.6384 5.00239 23.6316 5.22602 23.5818 5.44196C23.532 5.65789 23.4401 5.86189 23.3114 6.04231C23.1827 6.22274 23.0198 6.37605 22.8319 6.4935C20.778 7.77279 19.1464 9.62862 18.1406 11.8294C19.1563 11.7444 20.174 11.9681 21.0605 12.471C21.947 12.9739 22.6611 13.7327 23.1093 14.6481C23.5575 15.5635 23.7189 16.5929 23.5725 17.6015C23.4261 18.6102 22.9786 19.5511 22.2886 20.3013C21.5987 21.0515 20.6983 21.576 19.7054 21.8061C18.7125 22.0362 17.6733 21.9612 16.7236 21.591C15.774 21.2208 14.9583 20.5726 14.3831 19.7311C13.8079 18.8897 13.5001 17.8942 13.5 16.875V16.8294C13.5018 16.6988 13.5075 16.5683 13.5169 16.4379C13.5321 16.1848 13.5624 15.8304 13.6215 15.3951C13.7396 14.5294 13.9708 13.3363 14.4383 11.9964C15.3698 9.31332 17.2564 5.99738 21.0431 3.6315C21.231 3.51405 21.4403 3.43477 21.6588 3.39817C21.8774 3.36157 22.101 3.36838 22.317 3.41821C22.5329 3.46805 22.7369 3.55992 22.9173 3.68859C23.0977 3.81726 23.2511 3.98021 23.3685 4.16813Z" fill="#FE8E0A"/>
</svg>
