<svg width="22" height="19" viewBox="0 0 22 19" fill="none" xmlns="http://www.w3.org/2000/svg">
<path fill-rule="evenodd" clip-rule="evenodd" d="M20.9019 10.8799C21.1533 10.8815 21.3928 10.9714 21.5643 11.1287C21.7363 11.2828 21.8256 11.4912 21.8106 11.7039C21.5375 15.6069 17.7578 18.6527 13.1867 18.6531H8.62492C4.05389 18.6527 0.274144 15.6069 0.00107485 11.7039C-0.0108974 11.4917 0.0775439 11.2844 0.246432 11.1287C0.416711 10.9695 0.657587 10.8792 0.909805 10.8799H4.19759C4.39795 10.8815 4.5759 10.7707 4.6356 10.6071C4.87292 9.96158 5.57111 9.52151 6.36219 9.51885H10.9104C11.7015 9.52151 12.3996 9.96158 12.637 10.6071C12.6962 10.7693 12.8717 10.8798 13.0704 10.8799H17.9476C18.1985 10.8799 18.402 10.7059 18.402 10.4913V2.32941C18.403 2.02223 18.1924 1.74334 17.8646 1.61778C17.5369 1.49222 17.1534 1.54355 16.8862 1.74876L16.5136 2.06746C16.3924 2.1719 16.3505 2.32597 16.4055 2.46545C16.7223 3.266 16.4819 4.15099 15.7848 4.74999L15.6031 4.90934C15.2482 5.21279 14.673 5.21279 14.3181 4.90934L11.9145 2.85255C11.5598 2.54901 11.5598 2.05696 11.9145 1.75342L12.1008 1.59407C12.8094 1.01505 13.8324 0.815614 14.7643 1.07482C14.9261 1.11881 15.1032 1.08193 15.2232 0.97921L15.644 0.619311C16.439 -0.009135 17.5935 -0.175638 18.5855 0.195061C19.5775 0.565759 20.2191 1.40342 20.2203 2.32941V10.4913C20.2203 10.7059 20.4237 10.8799 20.6747 10.8799H20.9019ZM10.4526 15.738C10.7036 15.738 10.907 15.564 10.907 15.3493V11.4627C10.907 11.2481 10.7036 11.074 10.4526 11.074H6.81678C6.56578 11.074 6.3623 11.2481 6.3623 11.4627V15.3493C6.3623 15.564 6.56578 15.738 6.81678 15.738H10.4526Z" fill="black" fill-opacity="0.5"/>
<path d="M8.18006 4.72982C8.3113 4.7308 8.44122 4.70747 8.56091 4.66142L10.2116 4.01002C10.5069 3.89408 10.7075 3.6522 10.7377 3.37549C10.768 3.09878 10.6233 2.82928 10.3583 2.66851C10.0932 2.50775 9.74793 2.48014 9.45259 2.59608L7.79921 3.2467C7.4116 3.39965 7.20068 3.76266 7.29224 4.11923C7.3838 4.4758 7.75318 4.72983 8.18006 4.72982Z" fill="black" fill-opacity="0.5"/>
<path d="M12.8344 8.94375C13.296 9.11214 13.8298 8.92876 14.027 8.5341L14.7414 7.10383C14.9256 6.71151 14.7095 6.26519 14.2548 6.09921C13.8001 5.93323 13.2737 6.10846 13.0698 6.49363L12.36 7.92623C12.1643 8.31928 12.3762 8.77368 12.8344 8.94375Z" fill="black" fill-opacity="0.5"/>
<path d="M9.53009 7.05277C9.88328 7.35773 10.4586 7.36017 10.8153 7.05821L12.1079 5.9653C12.4549 5.66205 12.4535 5.17681 12.1046 4.87508C11.7557 4.57334 11.1884 4.56661 10.8299 4.85995L9.53736 5.95364C9.18051 6.25547 9.17725 6.74751 9.53009 7.05277Z" fill="black" fill-opacity="0.5"/>
</svg>
