<svg width="22" height="19" viewBox="0 0 22 19" fill="none" xmlns="http://www.w3.org/2000/svg">
<path d="M6.3611 3.49794C6.86309 3.49794 7.27004 3.14992 7.27004 2.72062V0.77732C7.27004 0.348018 6.86309 0 6.3611 0C5.8591 0 5.45215 0.348018 5.45215 0.77732V2.72062C5.45215 3.14992 5.8591 3.49794 6.3611 3.49794Z" fill="black" fill-opacity="0.5"/>
<path d="M4.09026 5.44114C4.09026 5.01184 3.68331 4.66382 3.18132 4.66382H0.908947C0.40695 4.66382 0 5.01184 0 5.44114C0 5.87044 0.40695 6.21846 0.908947 6.21846H3.18132C3.68331 6.21846 4.09026 5.87044 4.09026 5.44114Z" fill="black" fill-opacity="0.5"/>
<path d="M3.18132 12.4373H0.908947C0.40695 12.4373 0 12.7853 0 13.2146C0 13.6439 0.40695 13.9919 0.908947 13.9919H3.18132C3.68331 13.9919 4.09026 13.6439 4.09026 13.2146C4.09026 12.7853 3.68331 12.4373 3.18132 12.4373Z" fill="black" fill-opacity="0.5"/>
<path d="M15.4485 0C14.9465 0 14.5396 0.348018 14.5396 0.77732V2.72062C14.5396 3.14992 14.9465 3.49794 15.4485 3.49794C15.9505 3.49794 16.3574 3.14992 16.3574 2.72062V0.77732C16.3574 0.348018 15.9505 0 15.4485 0Z" fill="black" fill-opacity="0.5"/>
<path d="M6.3611 15.158C5.8591 15.158 5.45215 15.506 5.45215 15.9353V17.8786C5.45215 18.3079 5.8591 18.6559 6.3611 18.6559C6.86309 18.6559 7.27004 18.3079 7.27004 17.8786V15.9353C7.27004 15.506 6.86309 15.158 6.3611 15.158Z" fill="black" fill-opacity="0.5"/>
<path d="M15.4485 15.158C14.9465 15.158 14.5396 15.506 14.5396 15.9353V17.8786C14.5396 18.3079 14.9465 18.6559 15.4485 18.6559C15.9505 18.6559 16.3574 18.3079 16.3574 17.8786V15.9353C16.3574 15.506 15.9505 15.158 15.4485 15.158Z" fill="black" fill-opacity="0.5"/>
<path d="M18.6292 6.2187H20.9015C21.4035 6.2187 21.8105 5.87068 21.8105 5.44138C21.8105 5.01208 21.4035 4.66406 20.9015 4.66406H18.6292C18.1272 4.66406 17.7202 5.01208 17.7202 5.44138C17.7202 5.87068 18.1272 6.2187 18.6292 6.2187Z" fill="black" fill-opacity="0.5"/>
<path d="M20.9015 12.4373H18.6292C18.1272 12.4373 17.7202 12.7853 17.7202 13.2146C17.7202 13.6439 18.1272 13.9919 18.6292 13.9919H20.9015C21.4035 13.9919 21.8105 13.6439 21.8105 13.2146C21.8105 12.7853 21.4035 12.4373 20.9015 12.4373Z" fill="black" fill-opacity="0.5"/>
<path fill-rule="evenodd" clip-rule="evenodd" d="M15.4482 4.66406C15.9501 4.66406 16.3569 5.01208 16.3569 5.44138V13.2146C16.3569 13.6439 15.9501 13.9919 15.4482 13.9919H6.36088C5.859 13.9919 5.45215 13.6439 5.45215 13.2146V5.44138C5.45215 5.01208 5.859 4.66406 6.36088 4.66406H15.4482ZM14.085 12.4371C14.3359 12.4371 14.5394 12.2631 14.5394 12.0485V6.60724C14.5394 6.39259 14.3359 6.21858 14.085 6.21858H7.7239C7.47296 6.21858 7.26953 6.39259 7.26953 6.60724V12.0485C7.26953 12.2631 7.47296 12.4371 7.7239 12.4371H14.085Z" fill="black" fill-opacity="0.5"/>
</svg>
