<svg width="41" height="40" viewBox="0 0 41 40" fill="none" xmlns="http://www.w3.org/2000/svg">
<g clip-path="url(#clip0_310_249)">
<path d="M20.0139 3.60156C25.3614 3.60156 25.9946 3.625 28.0976 3.71875C30.0521 3.80469 31.1075 4.13281 31.8111 4.40625C32.7415 4.76563 33.4138 5.20313 34.1096 5.89844C34.8132 6.60156 35.2432 7.26563 35.6028 8.19531C35.8765 8.89844 36.2048 9.96094 36.2908 11.9063C36.3846 14.0156 36.4081 14.6484 36.4081 19.9844C36.4081 25.3281 36.3846 25.9609 36.2908 28.0625C36.2048 30.0156 35.8765 31.0703 35.6028 31.7734C35.2432 32.7031 34.8054 33.375 34.1096 34.0703C33.406 34.7734 32.7415 35.2031 31.8111 35.5625C31.1075 35.8359 30.0443 36.1641 28.0976 36.25C25.9868 36.3438 25.3535 36.3672 20.0139 36.3672C14.6664 36.3672 14.0332 36.3438 11.9302 36.25C9.97567 36.1641 8.92025 35.8359 8.21664 35.5625C7.28631 35.2031 6.61396 34.7656 5.91817 34.0703C5.21456 33.3672 4.78457 32.7031 4.42495 31.7734C4.15132 31.0703 3.82297 30.0078 3.73697 28.0625C3.64315 25.9531 3.6197 25.3203 3.6197 19.9844C3.6197 14.6406 3.64315 14.0078 3.73697 11.9063C3.82297 9.95312 4.15132 8.89844 4.42495 8.19531C4.78457 7.26563 5.22237 6.59375 5.91817 5.89844C6.62178 5.19531 7.28631 4.76563 8.21664 4.40625C8.92025 4.13281 9.98349 3.80469 11.9302 3.71875C14.0332 3.625 14.6664 3.60156 20.0139 3.60156ZM20.0139 0C14.5804 0 13.9003 0.0234375 11.766 0.117188C9.6395 0.210938 8.17755 0.554687 6.91105 1.04687C5.58982 1.5625 4.47185 2.24219 3.36171 3.35938C2.24374 4.46875 1.56359 5.58594 1.0476 6.89844C0.555073 8.17188 0.211084 9.625 0.117269 11.75C0.0234538 13.8906 0 14.5703 0 20C0 25.4297 0.0234538 26.1094 0.117269 28.2422C0.211084 30.3672 0.555073 31.8281 1.0476 33.0938C1.56359 34.4141 2.24374 35.5313 3.36171 36.6406C4.47185 37.75 5.58982 38.4375 6.90323 38.9453C8.17755 39.4375 9.63168 39.7813 11.7582 39.875C13.8925 39.9688 14.5726 39.9922 20.0061 39.9922C25.4395 39.9922 26.1197 39.9688 28.254 39.875C30.3805 39.7813 31.8424 39.4375 33.1089 38.9453C34.4223 38.4375 35.5403 37.75 36.6504 36.6406C37.7606 35.5313 38.4486 34.4141 38.9567 33.1016C39.4493 31.8281 39.7932 30.375 39.8871 28.25C39.9809 26.1172 40.0043 25.4375 40.0043 20.0078C40.0043 14.5781 39.9809 13.8984 39.8871 11.7656C39.7932 9.64063 39.4493 8.17969 38.9567 6.91406C38.4642 5.58594 37.784 4.46875 36.6661 3.35938C35.5559 2.25 34.438 1.5625 33.1246 1.05469C31.8502 0.5625 30.3961 0.21875 28.2696 0.125C26.1275 0.0234375 25.4473 0 20.0139 0Z" fill="white"/>
<path d="M20.0139 9.72656C14.3381 9.72656 9.73332 14.3281 9.73332 20C9.73332 25.6719 14.3381 30.2734 20.0139 30.2734C25.6897 30.2734 30.2945 25.6719 30.2945 20C30.2945 14.3281 25.6897 9.72656 20.0139 9.72656ZM20.0139 26.6641C16.3317 26.6641 13.3452 23.6797 13.3452 20C13.3452 16.3203 16.3317 13.3359 20.0139 13.3359C23.6961 13.3359 26.6826 16.3203 26.6826 20C26.6826 23.6797 23.6961 26.6641 20.0139 26.6641Z" fill="white"/>
<path d="M33.1011 9.32032C33.1011 10.6484 32.0222 11.7188 30.701 11.7188C29.3719 11.7188 28.3009 10.6406 28.3009 9.32032C28.3009 7.99219 29.3798 6.92188 30.701 6.92188C32.0222 6.92188 33.1011 8 33.1011 9.32032Z" fill="white"/>
</g>
<defs>
<clipPath id="clip0_310_249">
<rect width="40.0278" height="40" fill="white"/>
</clipPath>
</defs>
</svg>
