<svg width="41" height="40" viewBox="0 0 41 40" fill="none" xmlns="http://www.w3.org/2000/svg">
<g clip-path="url(#clip0_310_248)">
<path d="M20.0139 0C8.96062 0 0 8.9544 0 20C0 29.3792 6.46208 37.2496 15.1793 39.4112V26.112H11.0525V20H15.1793V17.3664C15.1793 10.5592 18.2623 7.404 24.9501 7.404C26.2182 7.404 28.4061 7.6528 29.3011 7.9008V13.4408C28.8288 13.3912 28.0082 13.3664 26.9891 13.3664C23.7077 13.3664 22.4396 14.6088 22.4396 17.8384V20H28.9769L27.8537 26.112H22.4396V39.8536C32.3496 38.6576 40.0286 30.2256 40.0286 20C40.0278 8.9544 31.0672 0 20.0139 0Z" fill="white"/>
</g>
<defs>
<clipPath id="clip0_310_248">
<rect width="40.0278" height="40" fill="white"/>
</clipPath>
</defs>
</svg>
