<svg width="27" height="24" viewBox="0 0 27 24" fill="none" xmlns="http://www.w3.org/2000/svg">
<path d="M23.3369 7.29167C23.3369 6.90489 23.1833 6.53396 22.9098 6.26047C22.6363 5.98698 22.2653 5.83333 21.8786 5.83333C21.4918 5.83333 21.1209 5.98698 20.8474 6.26047C20.5739 6.53396 20.4202 6.90489 20.4202 7.29167C20.4202 7.67844 20.5739 8.04937 20.8474 8.32286C21.1209 8.59635 21.4918 8.75 21.8786 8.75C22.2653 8.75 22.6363 8.59635 22.9098 8.32286C23.1833 8.04937 23.3369 7.67844 23.3369 7.29167ZM23.3369 3.16458C24.1908 3.46588 24.9302 4.02462 25.4533 4.76379C25.9763 5.50296 26.2571 6.38617 26.2571 7.29167C26.2571 8.19717 25.9763 9.08037 25.4533 9.81954C24.9302 10.5587 24.1908 11.1175 23.3369 11.4187V21.875C23.3369 22.2618 23.1833 22.6327 22.9098 22.9062C22.6363 23.1797 22.2653 23.3333 21.8786 23.3333C21.4918 23.3333 21.1209 23.1797 20.8474 22.9062C20.5739 22.6327 20.4202 22.2618 20.4202 21.875V11.4187C19.5663 11.1175 18.8269 10.5587 18.3039 9.81954C17.7809 9.08037 17.5 8.19717 17.5 7.29167C17.5 6.38617 17.7809 5.50296 18.3039 4.76379C18.8269 4.02462 19.5663 3.46588 20.4202 3.16458V1.45833C20.4202 1.07156 20.5739 0.700627 20.8474 0.427136C21.1209 0.153646 21.4918 0 21.8786 0C22.2653 0 22.6363 0.153646 22.9098 0.427136C23.1833 0.700627 23.3369 1.07156 23.3369 1.45833V3.16458ZM14.5869 16.0417C14.5869 15.6549 14.4333 15.284 14.1598 15.0105C13.8863 14.737 13.5153 14.5833 13.1286 14.5833C12.7418 14.5833 12.3709 14.737 12.0974 15.0105C11.8239 15.284 11.6702 15.6549 11.6702 16.0417C11.6702 16.4284 11.8239 16.7994 12.0974 17.0729C12.3709 17.3464 12.7418 17.5 13.1286 17.5C13.5153 17.5 13.8863 17.3464 14.1598 17.0729C14.4333 16.7994 14.5869 16.4284 14.5869 16.0417ZM14.5869 11.9146C15.4408 12.2159 16.1802 12.7746 16.7033 13.5138C17.2263 14.253 17.5071 15.1362 17.5071 16.0417C17.5071 16.9472 17.2263 17.8304 16.7033 18.5695C16.1802 19.3087 15.4408 19.8675 14.5869 20.1688V21.875C14.5869 22.2618 14.4333 22.6327 14.1598 22.9062C13.8863 23.1797 13.5153 23.3333 13.1286 23.3333C12.7418 23.3333 12.3709 23.1797 12.0974 22.9062C11.8239 22.6327 11.6702 22.2618 11.6702 21.875V20.1688C10.8163 19.8675 10.0769 19.3087 9.55389 18.5695C9.03087 17.8304 8.75 16.9472 8.75 16.0417C8.75 15.1362 9.03087 14.253 9.55389 13.5138C10.0769 12.7746 10.8163 12.2159 11.6702 11.9146V1.45833C11.6702 1.07156 11.8239 0.700627 12.0974 0.427136C12.3709 0.153646 12.7418 0 13.1286 0C13.5153 0 13.8863 0.153646 14.1598 0.427136C14.4333 0.700627 14.5869 1.07156 14.5869 1.45833V11.9146ZM5.83691 7.29167C5.83691 6.90489 5.68326 6.53396 5.40977 6.26047C5.13628 5.98698 4.76535 5.83333 4.37857 5.83333C3.9918 5.83333 3.62087 5.98698 3.34738 6.26047C3.07388 6.53396 2.92024 6.90489 2.92024 7.29167C2.92024 7.67844 3.07388 8.04937 3.34738 8.32286C3.62087 8.59635 3.9918 8.75 4.37857 8.75C4.76535 8.75 5.13628 8.59635 5.40977 8.32286C5.68326 8.04937 5.83691 7.67844 5.83691 7.29167ZM5.83691 3.16458C6.69081 3.46588 7.43023 4.02462 7.95326 4.76379C8.47628 5.50296 8.75715 6.38617 8.75715 7.29167C8.75715 8.19717 8.47628 9.08037 7.95326 9.81954C7.43023 10.5587 6.69081 11.1175 5.83691 11.4187V21.875C5.83691 22.2618 5.68326 22.6327 5.40977 22.9062C5.13628 23.1797 4.76535 23.3333 4.37857 23.3333C3.9918 23.3333 3.62087 23.1797 3.34738 22.9062C3.07388 22.6327 2.92024 22.2618 2.92024 21.875V11.4187C2.06634 11.1175 1.32692 10.5587 0.803892 9.81954C0.28087 9.08037 0 8.19717 0 7.29167C0 6.38617 0.28087 5.50296 0.803892 4.76379C1.32692 4.02462 2.06634 3.46588 2.92024 3.16458V1.45833C2.92024 1.07156 3.07388 0.700627 3.34738 0.427136C3.62087 0.153646 3.9918 0 4.37857 0C4.76535 0 5.13628 0.153646 5.40977 0.427136C5.68326 0.700627 5.83691 1.07156 5.83691 1.45833V3.16458Z" fill="#FE8E0A"/>
</svg>
